<mxfile host="app.diagrams.net" agent="Mozilla/5.0 (Windows NT 10.0; Win64; x64) AppleWebKit/537.36 (KHTML, like Gecko) Chrome/129.0.0.0 Safari/537.36" version="24.8.0">
  <diagram name="Page-1" id="-FuOQ0In-D_dgoDh1SSy">
    <mxGraphModel dx="2261" dy="784" grid="1" gridSize="10" guides="1" tooltips="1" connect="1" arrows="1" fold="1" page="1" pageScale="1" pageWidth="827" pageHeight="1169" math="0" shadow="0">
      <root>
        <mxCell id="0" />
        <mxCell id="1" parent="0" />
        <mxCell id="MxLzxgKq0q_-sn1yWbgU-1" value="Easy LMS" style="strokeWidth=1;shadow=0;dashed=0;align=center;html=1;shape=mxgraph.mockup.containers.window;align=left;verticalAlign=top;spacingLeft=8;strokeColor2=#008cff;strokeColor3=#c4c4c4;fontColor=#666666;mainText=;fontSize=17;labelBackgroundColor=none;whiteSpace=wrap;" vertex="1" parent="1">
          <mxGeometry x="-250" y="40" width="850" height="2020" as="geometry" />
        </mxCell>
        <mxCell id="MxLzxgKq0q_-sn1yWbgU-3" value="" style="html=1;shadow=0;dashed=0;fillColor=#F8F9FA;strokeColor=none;fontSize=16;fontColor=#181819;align=left;spacing=15;" vertex="1" parent="1">
          <mxGeometry x="-250" y="70" width="850" height="60" as="geometry" />
        </mxCell>
        <mxCell id="MxLzxgKq0q_-sn1yWbgU-4" value="" style="swimlane;shape=mxgraph.bootstrap.anchor;strokeColor=none;fillColor=none;fontColor=#0085FC;fontStyle=0;childLayout=stackLayout;horizontal=0;startSize=0;horizontalStack=1;resizeParent=1;resizeParentMax=0;resizeLast=0;collapsible=0;marginBottom=0;whiteSpace=wrap;html=1;resizeWidth=0;" vertex="1" parent="MxLzxgKq0q_-sn1yWbgU-3">
          <mxGeometry y="10" width="80" height="40" as="geometry" />
        </mxCell>
        <mxCell id="MxLzxgKq0q_-sn1yWbgU-5" value="Logo" style="text;strokeColor=none;align=center;verticalAlign=middle;spacingLeft=10;spacingRight=10;points=[[0,0.5],[1,0.5]];portConstraint=eastwest;rotatable=0;whiteSpace=wrap;html=1;fillColor=none;fontColor=#181819;fontSize=16;" vertex="1" parent="MxLzxgKq0q_-sn1yWbgU-4">
          <mxGeometry width="80" height="40" as="geometry" />
        </mxCell>
        <mxCell id="MxLzxgKq0q_-sn1yWbgU-11" value="Login" style="html=1;shadow=0;dashed=0;shape=mxgraph.bootstrap.rrect;rSize=5;fontSize=14;fontColor=#33A64C;strokeColor=#33A64C;fillColor=none;" vertex="1" parent="MxLzxgKq0q_-sn1yWbgU-3">
          <mxGeometry x="1" width="70" height="40" relative="1" as="geometry">
            <mxPoint x="-80" y="10" as="offset" />
          </mxGeometry>
        </mxCell>
        <mxCell id="MxLzxgKq0q_-sn1yWbgU-6" value="Home" style="text;strokeColor=none;align=center;verticalAlign=middle;spacingLeft=10;spacingRight=10;points=[[0,0.5],[1,0.5]];portConstraint=eastwest;rotatable=0;whiteSpace=wrap;html=1;fillColor=none;fontColor=#181819;fontSize=14;" vertex="1" parent="MxLzxgKq0q_-sn1yWbgU-3">
          <mxGeometry x="590" y="10" width="50" height="40" as="geometry" />
        </mxCell>
        <mxCell id="MxLzxgKq0q_-sn1yWbgU-7" value="About" style="text;strokeColor=none;align=center;verticalAlign=middle;spacingLeft=10;spacingRight=10;points=[[0,0.5],[1,0.5]];portConstraint=eastwest;rotatable=0;whiteSpace=wrap;html=1;fillColor=none;fontColor=#7C7C7D;fontSize=14;" vertex="1" parent="MxLzxgKq0q_-sn1yWbgU-3">
          <mxGeometry x="640" y="10" width="70" height="40" as="geometry" />
        </mxCell>
        <mxCell id="MxLzxgKq0q_-sn1yWbgU-13" value="Contact" style="text;strokeColor=none;align=center;verticalAlign=middle;spacingLeft=10;spacingRight=10;points=[[0,0.5],[1,0.5]];portConstraint=eastwest;rotatable=0;whiteSpace=wrap;html=1;fillColor=none;fontColor=#7C7C7D;fontSize=14;" vertex="1" parent="MxLzxgKq0q_-sn1yWbgU-3">
          <mxGeometry x="700" y="10" width="70" height="40" as="geometry" />
        </mxCell>
        <mxCell id="MxLzxgKq0q_-sn1yWbgU-14" value="&lt;font style=&quot;font-size: 24px;&quot;&gt;Create Your Own Online Learning Community&lt;/font&gt;" style="text;html=1;align=left;verticalAlign=middle;whiteSpace=wrap;rounded=0;fontColor=default;" vertex="1" parent="1">
          <mxGeometry x="-200" y="160" width="330" height="60" as="geometry" />
        </mxCell>
        <mxCell id="MxLzxgKq0q_-sn1yWbgU-15" value="We have everything you need and nothing you don&#39;t." style="text;html=1;align=left;verticalAlign=middle;whiteSpace=wrap;rounded=0;" vertex="1" parent="1">
          <mxGeometry x="-200" y="220" width="340" height="30" as="geometry" />
        </mxCell>
        <mxCell id="MxLzxgKq0q_-sn1yWbgU-16" value="Sign Up" style="html=1;shadow=0;dashed=0;shape=mxgraph.bootstrap.rrect;rSize=5;strokeColor=none;strokeWidth=1;fillColor=#0085FC;fontColor=#FFFFFF;whiteSpace=wrap;align=center;verticalAlign=middle;spacingLeft=0;fontStyle=0;fontSize=16;spacing=5;" vertex="1" parent="1">
          <mxGeometry x="-200" y="260" width="80" height="40" as="geometry" />
        </mxCell>
        <mxCell id="MxLzxgKq0q_-sn1yWbgU-19" value="Book a Call" style="html=1;shadow=0;dashed=0;shape=mxgraph.bootstrap.rrect;rSize=5;strokeColor=none;strokeWidth=1;fillColor=#4D4D4D;fontColor=#FFFFFF;whiteSpace=wrap;align=center;verticalAlign=middle;spacingLeft=0;fontStyle=0;fontSize=16;spacing=5;" vertex="1" parent="1">
          <mxGeometry x="-100" y="260" width="120" height="40" as="geometry" />
        </mxCell>
        <mxCell id="MxLzxgKq0q_-sn1yWbgU-22" value="" style="sketch=0;outlineConnect=0;fontColor=#232F3E;gradientColor=none;fillColor=#ED7100;strokeColor=none;dashed=0;verticalLabelPosition=bottom;verticalAlign=top;align=center;html=1;fontSize=12;fontStyle=0;aspect=fixed;pointerEvents=1;shape=mxgraph.aws4.container_registry_image;" vertex="1" parent="1">
          <mxGeometry x="-100" y="340" width="160" height="160" as="geometry" />
        </mxCell>
        <mxCell id="MxLzxgKq0q_-sn1yWbgU-23" value="" style="sketch=0;outlineConnect=0;fontColor=#232F3E;gradientColor=none;fillColor=#ED7100;strokeColor=none;dashed=0;verticalLabelPosition=bottom;verticalAlign=top;align=center;html=1;fontSize=12;fontStyle=0;aspect=fixed;pointerEvents=1;shape=mxgraph.aws4.container_registry_image;" vertex="1" parent="1">
          <mxGeometry x="210" y="250" width="250" height="250" as="geometry" />
        </mxCell>
        <mxCell id="MxLzxgKq0q_-sn1yWbgU-24" value="" style="rounded=0;whiteSpace=wrap;html=1;fillColor=#333333;" vertex="1" parent="1">
          <mxGeometry x="-250" y="540" width="850" height="790" as="geometry" />
        </mxCell>
        <mxCell id="MxLzxgKq0q_-sn1yWbgU-25" value="&lt;font style=&quot;font-size: 24px;&quot;&gt;Create Your Own Online Learning Community&lt;/font&gt;" style="text;html=1;align=center;verticalAlign=middle;whiteSpace=wrap;rounded=0;fontColor=#FFFFFF;" vertex="1" parent="1">
          <mxGeometry x="-5" y="560" width="360" height="80" as="geometry" />
        </mxCell>
        <mxCell id="MxLzxgKq0q_-sn1yWbgU-26" value="Video" style="html=1;whiteSpace=wrap;strokeColor=none;fillColor=#0079D6;labelPosition=center;verticalLabelPosition=middle;verticalAlign=top;align=center;fontSize=12;outlineConnect=0;spacingTop=-6;fontColor=#FFFFFF;sketch=0;shape=mxgraph.sitemap.video;" vertex="1" parent="1">
          <mxGeometry x="-75" y="660" width="500" height="310" as="geometry" />
        </mxCell>
        <mxCell id="MxLzxgKq0q_-sn1yWbgU-27" value="Sign Up" style="html=1;shadow=0;dashed=0;shape=mxgraph.bootstrap.rrect;rSize=5;strokeColor=none;strokeWidth=1;fillColor=#0085FC;fontColor=#FFFFFF;whiteSpace=wrap;align=center;verticalAlign=middle;spacingLeft=0;fontStyle=0;fontSize=16;spacing=5;" vertex="1" parent="1">
          <mxGeometry x="-75" y="1000" width="80" height="40" as="geometry" />
        </mxCell>
        <mxCell id="MxLzxgKq0q_-sn1yWbgU-28" value="Book a Call" style="html=1;shadow=0;dashed=0;shape=mxgraph.bootstrap.rrect;rSize=5;strokeColor=none;strokeWidth=1;fillColor=#4D4D4D;fontColor=#FFFFFF;whiteSpace=wrap;align=center;verticalAlign=middle;spacingLeft=0;fontStyle=0;fontSize=16;spacing=5;" vertex="1" parent="1">
          <mxGeometry x="25" y="1000" width="120" height="40" as="geometry" />
        </mxCell>
        <mxCell id="MxLzxgKq0q_-sn1yWbgU-29" value="&lt;font style=&quot;font-size: 24px;&quot;&gt;Testimonials&lt;/font&gt;" style="text;html=1;align=center;verticalAlign=middle;whiteSpace=wrap;rounded=0;fontColor=#FFFFFF;" vertex="1" parent="1">
          <mxGeometry x="-5" y="1090" width="360" height="60" as="geometry" />
        </mxCell>
        <mxCell id="MxLzxgKq0q_-sn1yWbgU-30" value="" style="rounded=1;whiteSpace=wrap;html=1;" vertex="1" parent="1">
          <mxGeometry x="-147.5" y="1169" width="190" height="90" as="geometry" />
        </mxCell>
        <mxCell id="MxLzxgKq0q_-sn1yWbgU-31" value="" style="rounded=1;whiteSpace=wrap;html=1;" vertex="1" parent="1">
          <mxGeometry x="77.5" y="1169" width="190" height="90" as="geometry" />
        </mxCell>
        <mxCell id="MxLzxgKq0q_-sn1yWbgU-33" value="" style="rounded=1;whiteSpace=wrap;html=1;" vertex="1" parent="1">
          <mxGeometry x="307.5" y="1169" width="190" height="90" as="geometry" />
        </mxCell>
        <mxCell id="MxLzxgKq0q_-sn1yWbgU-34" value="Testimonial text&lt;div&gt;&lt;b&gt;Source&lt;/b&gt;&lt;/div&gt;" style="text;html=1;align=left;verticalAlign=middle;whiteSpace=wrap;rounded=0;" vertex="1" parent="1">
          <mxGeometry x="-130" y="1190" width="125" height="30" as="geometry" />
        </mxCell>
        <mxCell id="MxLzxgKq0q_-sn1yWbgU-35" value="Testimonial text&lt;div&gt;&lt;b&gt;Source&lt;/b&gt;&lt;/div&gt;" style="text;html=1;align=left;verticalAlign=middle;whiteSpace=wrap;rounded=0;" vertex="1" parent="1">
          <mxGeometry x="100" y="1190" width="125" height="30" as="geometry" />
        </mxCell>
        <mxCell id="MxLzxgKq0q_-sn1yWbgU-36" value="Testimonial text&lt;div&gt;&lt;b&gt;Source&lt;/b&gt;&lt;/div&gt;" style="text;html=1;align=left;verticalAlign=middle;whiteSpace=wrap;rounded=0;" vertex="1" parent="1">
          <mxGeometry x="335" y="1190" width="125" height="30" as="geometry" />
        </mxCell>
        <mxCell id="MxLzxgKq0q_-sn1yWbgU-37" value="&lt;font color=&quot;#000000&quot; style=&quot;font-size: 24px;&quot;&gt;Pricing&lt;/font&gt;" style="text;html=1;align=center;verticalAlign=middle;whiteSpace=wrap;rounded=0;fontColor=#333333;" vertex="1" parent="1">
          <mxGeometry x="113.75" y="1350" width="117.5" height="40" as="geometry" />
        </mxCell>
        <mxCell id="MxLzxgKq0q_-sn1yWbgU-38" value="One monthly price. No hidden fees." style="text;html=1;align=center;verticalAlign=middle;whiteSpace=wrap;rounded=0;" vertex="1" parent="1">
          <mxGeometry x="51.25" y="1390" width="242.5" height="30" as="geometry" />
        </mxCell>
        <mxCell id="MxLzxgKq0q_-sn1yWbgU-39" value="" style="rounded=1;whiteSpace=wrap;html=1;arcSize=4;imageHeight=24;imageWidth=24;" vertex="1" parent="1">
          <mxGeometry x="-147.5" y="1440" width="267.5" height="400" as="geometry" />
        </mxCell>
        <mxCell id="MxLzxgKq0q_-sn1yWbgU-41" value="" style="rounded=1;whiteSpace=wrap;html=1;arcSize=4;imageHeight=24;imageWidth=24;" vertex="1" parent="1">
          <mxGeometry x="230" y="1440" width="267.5" height="400" as="geometry" />
        </mxCell>
        <mxCell id="MxLzxgKq0q_-sn1yWbgU-42" value="&lt;font color=&quot;#000000&quot; style=&quot;font-size: 24px;&quot;&gt;Free Trial&lt;/font&gt;" style="text;html=1;align=left;verticalAlign=middle;whiteSpace=wrap;rounded=0;fontColor=#333333;" vertex="1" parent="1">
          <mxGeometry x="-125" y="1460" width="210" height="40" as="geometry" />
        </mxCell>
        <mxCell id="MxLzxgKq0q_-sn1yWbgU-43" value="Try all our features and start building your community for free. No credit card is required." style="text;html=1;align=left;verticalAlign=middle;whiteSpace=wrap;rounded=0;" vertex="1" parent="1">
          <mxGeometry x="-125" y="1500" width="242.5" height="50" as="geometry" />
        </mxCell>
        <mxCell id="MxLzxgKq0q_-sn1yWbgU-44" value="&lt;font color=&quot;#000000&quot;&gt;&lt;span style=&quot;font-size: 24px;&quot;&gt;$0&lt;/span&gt;&lt;/font&gt;" style="text;html=1;align=left;verticalAlign=middle;whiteSpace=wrap;rounded=0;fontColor=#333333;" vertex="1" parent="1">
          <mxGeometry x="-120" y="1570" width="210" height="40" as="geometry" />
        </mxCell>
        <mxCell id="MxLzxgKq0q_-sn1yWbgU-48" value="" style="endArrow=none;html=1;rounded=0;labelBackgroundColor=#007FFF;fontColor=#007FFF;" edge="1" parent="1">
          <mxGeometry width="50" height="50" relative="1" as="geometry">
            <mxPoint x="-120" y="1630" as="sourcePoint" />
            <mxPoint x="80" y="1630.5" as="targetPoint" />
          </mxGeometry>
        </mxCell>
        <mxCell id="MxLzxgKq0q_-sn1yWbgU-49" value="" style="endArrow=none;html=1;rounded=0;labelBackgroundColor=#007FFF;fontColor=#007FFF;" edge="1" parent="1">
          <mxGeometry width="50" height="50" relative="1" as="geometry">
            <mxPoint x="281.25" y="1630" as="sourcePoint" />
            <mxPoint x="481.25" y="1630.5" as="targetPoint" />
          </mxGeometry>
        </mxCell>
        <mxCell id="MxLzxgKq0q_-sn1yWbgU-50" value="&lt;font color=&quot;#000000&quot; style=&quot;font-size: 24px;&quot;&gt;Pro&lt;/font&gt;" style="text;html=1;align=left;verticalAlign=middle;whiteSpace=wrap;rounded=0;fontColor=#333333;" vertex="1" parent="1">
          <mxGeometry x="267.5" y="1460" width="210" height="40" as="geometry" />
        </mxCell>
        <mxCell id="MxLzxgKq0q_-sn1yWbgU-51" value="One price, monthly plan." style="text;html=1;align=left;verticalAlign=top;whiteSpace=wrap;rounded=0;" vertex="1" parent="1">
          <mxGeometry x="267.5" y="1500" width="242.5" height="50" as="geometry" />
        </mxCell>
        <mxCell id="MxLzxgKq0q_-sn1yWbgU-52" value="&lt;font color=&quot;#000000&quot;&gt;&lt;span style=&quot;font-size: 24px;&quot;&gt;$99&lt;/span&gt;&lt;/font&gt;" style="text;html=1;align=left;verticalAlign=middle;whiteSpace=wrap;rounded=0;fontColor=#333333;" vertex="1" parent="1">
          <mxGeometry x="267.5" y="1570" width="210" height="40" as="geometry" />
        </mxCell>
        <mxCell id="MxLzxgKq0q_-sn1yWbgU-53" value="" style="shape=image;html=1;verticalAlign=top;verticalLabelPosition=bottom;labelBackgroundColor=#ffffff;imageAspect=0;aspect=fixed;image=https://cdn4.iconfinder.com/data/icons/ionicons/512/icon-checkmark-128.png" vertex="1" parent="1">
          <mxGeometry x="-120" y="1660" width="18" height="18" as="geometry" />
        </mxCell>
        <mxCell id="MxLzxgKq0q_-sn1yWbgU-54" value="" style="shape=image;html=1;verticalAlign=top;verticalLabelPosition=bottom;labelBackgroundColor=#ffffff;imageAspect=0;aspect=fixed;image=https://cdn4.iconfinder.com/data/icons/ionicons/512/icon-checkmark-128.png" vertex="1" parent="1">
          <mxGeometry x="-120" y="1690" width="18" height="18" as="geometry" />
        </mxCell>
        <mxCell id="MxLzxgKq0q_-sn1yWbgU-55" value="" style="shape=image;html=1;verticalAlign=top;verticalLabelPosition=bottom;labelBackgroundColor=#ffffff;imageAspect=0;aspect=fixed;image=https://cdn4.iconfinder.com/data/icons/ionicons/512/icon-checkmark-128.png" vertex="1" parent="1">
          <mxGeometry x="-120" y="1720" width="18" height="18" as="geometry" />
        </mxCell>
        <mxCell id="MxLzxgKq0q_-sn1yWbgU-56" value="Feature" style="text;html=1;align=left;verticalAlign=middle;whiteSpace=wrap;rounded=0;" vertex="1" parent="1">
          <mxGeometry x="-97.5" y="1654" width="107.5" height="30" as="geometry" />
        </mxCell>
        <mxCell id="MxLzxgKq0q_-sn1yWbgU-57" value="Feature" style="text;html=1;align=left;verticalAlign=middle;whiteSpace=wrap;rounded=0;" vertex="1" parent="1">
          <mxGeometry x="-97.5" y="1684" width="107.5" height="30" as="geometry" />
        </mxCell>
        <mxCell id="MxLzxgKq0q_-sn1yWbgU-58" value="Feature" style="text;html=1;align=left;verticalAlign=middle;whiteSpace=wrap;rounded=0;" vertex="1" parent="1">
          <mxGeometry x="-97.5" y="1714" width="107.5" height="30" as="geometry" />
        </mxCell>
        <mxCell id="MxLzxgKq0q_-sn1yWbgU-65" value="" style="shape=image;html=1;verticalAlign=top;verticalLabelPosition=bottom;labelBackgroundColor=#ffffff;imageAspect=0;aspect=fixed;image=https://cdn4.iconfinder.com/data/icons/ionicons/512/icon-checkmark-128.png" vertex="1" parent="1">
          <mxGeometry x="267.5" y="1660" width="18" height="18" as="geometry" />
        </mxCell>
        <mxCell id="MxLzxgKq0q_-sn1yWbgU-66" value="" style="shape=image;html=1;verticalAlign=top;verticalLabelPosition=bottom;labelBackgroundColor=#ffffff;imageAspect=0;aspect=fixed;image=https://cdn4.iconfinder.com/data/icons/ionicons/512/icon-checkmark-128.png" vertex="1" parent="1">
          <mxGeometry x="267.5" y="1690" width="18" height="18" as="geometry" />
        </mxCell>
        <mxCell id="MxLzxgKq0q_-sn1yWbgU-67" value="" style="shape=image;html=1;verticalAlign=top;verticalLabelPosition=bottom;labelBackgroundColor=#ffffff;imageAspect=0;aspect=fixed;image=https://cdn4.iconfinder.com/data/icons/ionicons/512/icon-checkmark-128.png" vertex="1" parent="1">
          <mxGeometry x="267.5" y="1720" width="18" height="18" as="geometry" />
        </mxCell>
        <mxCell id="MxLzxgKq0q_-sn1yWbgU-68" value="Feature" style="text;html=1;align=left;verticalAlign=middle;whiteSpace=wrap;rounded=0;" vertex="1" parent="1">
          <mxGeometry x="290" y="1654" width="107.5" height="30" as="geometry" />
        </mxCell>
        <mxCell id="MxLzxgKq0q_-sn1yWbgU-69" value="Feature" style="text;html=1;align=left;verticalAlign=middle;whiteSpace=wrap;rounded=0;" vertex="1" parent="1">
          <mxGeometry x="290" y="1684" width="107.5" height="30" as="geometry" />
        </mxCell>
        <mxCell id="MxLzxgKq0q_-sn1yWbgU-70" value="Feature" style="text;html=1;align=left;verticalAlign=middle;whiteSpace=wrap;rounded=0;" vertex="1" parent="1">
          <mxGeometry x="290" y="1714" width="107.5" height="30" as="geometry" />
        </mxCell>
        <mxCell id="MxLzxgKq0q_-sn1yWbgU-71" value="Sign Up" style="html=1;shadow=0;dashed=0;shape=mxgraph.bootstrap.rrect;rSize=5;strokeColor=none;strokeWidth=1;fillColor=#0085FC;fontColor=#FFFFFF;whiteSpace=wrap;align=center;verticalAlign=middle;spacingLeft=0;fontStyle=0;fontSize=16;spacing=5;" vertex="1" parent="1">
          <mxGeometry x="-125" y="1770" width="225" height="40" as="geometry" />
        </mxCell>
        <mxCell id="MxLzxgKq0q_-sn1yWbgU-72" value="Sign Up" style="html=1;shadow=0;dashed=0;shape=mxgraph.bootstrap.rrect;rSize=5;strokeColor=none;strokeWidth=1;fillColor=#0085FC;fontColor=#FFFFFF;whiteSpace=wrap;align=center;verticalAlign=middle;spacingLeft=0;fontStyle=0;fontSize=16;spacing=5;" vertex="1" parent="1">
          <mxGeometry x="251.25" y="1770" width="225" height="40" as="geometry" />
        </mxCell>
        <mxCell id="MxLzxgKq0q_-sn1yWbgU-73" value="" style="rounded=0;whiteSpace=wrap;html=1;fillColor=#333333;" vertex="1" parent="1">
          <mxGeometry x="-250" y="1900" width="850" height="160" as="geometry" />
        </mxCell>
        <mxCell id="MxLzxgKq0q_-sn1yWbgU-74" value="" style="shape=image;html=1;verticalLabelPosition=bottom;verticalAlign=top;imageAspect=1;aspect=fixed;image=img/clipart/Gear_128x128.png" vertex="1" parent="1">
          <mxGeometry x="-147.5" y="1949.5" width="52" height="61" as="geometry" />
        </mxCell>
        <mxCell id="MxLzxgKq0q_-sn1yWbgU-75" value="Line 1&lt;br&gt;Line 2&lt;br&gt;Line 3&lt;br&gt;Line 4" style="strokeWidth=1;shadow=0;dashed=0;align=center;html=1;shape=mxgraph.mockup.text.bulletedList;textColor=#666666;mainText=,,,,;textSize=17;bulletStyle=none;strokeColor=none;fillColor=none;align=left;verticalAlign=top;fontSize=17;fontColor=#ffffff;" vertex="1" parent="1">
          <mxGeometry x="142.5" y="1932.5" width="65" height="95" as="geometry" />
        </mxCell>
        <mxCell id="MxLzxgKq0q_-sn1yWbgU-76" value="Line 1&lt;br&gt;Line 2&lt;br&gt;Line 3&lt;br&gt;Line 4" style="strokeWidth=1;shadow=0;dashed=0;align=center;html=1;shape=mxgraph.mockup.text.bulletedList;textColor=#666666;mainText=,,,,;textSize=17;bulletStyle=none;strokeColor=none;fillColor=none;align=left;verticalAlign=top;fontSize=17;fontColor=#ffffff;" vertex="1" parent="1">
          <mxGeometry x="432.5" y="1932.5" width="65" height="95" as="geometry" />
        </mxCell>
      </root>
    </mxGraphModel>
  </diagram>
</mxfile>
